<?xml version="1.0" encoding="utf-8"?>
<!-- Generated by Mocodo 4.3.2 -->
<svg width="1046" height="601" viewBox="0 0 1046 601" xmlns="http://www.w3.org/2000/svg">
<rect x="0" y="0" width="1046" height="601" fill="#f7f7f7" stroke="none" stroke-width="0"/>

<!-- Association CONCERNER -->
<g>
	<line x1="79" y1="102" x2="286" y2="102" stroke="#7fbc41" stroke-width="2"/>
	<line x1="515" y1="102" x2="286" y2="102" stroke="#7fbc41" stroke-width="2"/>
	<g>
		<path d="M356 77 a14 14 90 0 1 14 14 V102 h-168 V91 a14 14 90 0 1 14 -14" fill="#b8e186" stroke="#b8e186" stroke-width="0"/>
		<path d="M370 102 v11 a14 14 90 0 1 -14 14 H216 a14 14 90 0 1 -14 -14 V102 H168" fill="#e6f5d0" stroke="#e6f5d0" stroke-width="0"/>
		<rect x="202" y="77" width="168" height="50" fill="none" rx="14" stroke="#7fbc41" stroke-width="2"/>
		<line x1="202" y1="102" x2="370" y2="102" stroke="#7fbc41" stroke-width="1"/>
		<text x="210" y="94.75" fill="#000000" font-family="Verdana" font-size="12">CONCERNER</text>
	</g>
	<text x="154" y="119" fill="#c51b7d" font-family="Verdana" font-size="12">0,N</text>
	<text x="378" y="94" fill="#c51b7d" font-family="Verdana" font-size="12">1,1</text>
</g>

<!-- Association CIBLER -->
<g>
	<line x1="515" y1="102" x2="712" y2="102" stroke="#7fbc41" stroke-width="2"/>
	<line x1="927" y1="102" x2="712" y2="102" stroke="#7fbc41" stroke-width="2"/>
	<g>
		<path d="M750 77 a14 14 90 0 1 14 14 V102 h-104 V91 a14 14 90 0 1 14 -14" fill="#b8e186" stroke="#b8e186" stroke-width="0"/>
		<path d="M764 102 v11 a14 14 90 0 1 -14 14 H674 a14 14 90 0 1 -14 -14 V102 H104" fill="#e6f5d0" stroke="#e6f5d0" stroke-width="0"/>
		<rect x="660" y="77" width="104" height="50" fill="none" rx="14" stroke="#7fbc41" stroke-width="2"/>
		<line x1="660" y1="102" x2="764" y2="102" stroke="#7fbc41" stroke-width="1"/>
		<text x="667" y="94.75" fill="#000000" font-family="Verdana" font-size="12">CIBLER</text>
	</g>
	<text x="612" y="94" fill="#c51b7d" font-family="Verdana" font-size="12">0,N</text>
	<text x="772" y="94" fill="#c51b7d" font-family="Verdana" font-size="12">1,1</text>
</g>

<!-- Association S_ABONNER -->
<g>
	<line x1="286" y1="406" x2="286" y2="254" stroke="#7fbc41" stroke-width="2"/>
	<line x1="515" y1="102" x2="286" y2="254" stroke="#7fbc41" stroke-width="2"/>
	<g>
		<path d="M364 229 a14 14 90 0 1 14 14 V254 h-184 V243 a14 14 90 0 1 14 -14" fill="#b8e186" stroke="#b8e186" stroke-width="0"/>
		<path d="M378 254 v11 a14 14 90 0 1 -14 14 H208 a14 14 90 0 1 -14 -14 V254 H184" fill="#e6f5d0" stroke="#e6f5d0" stroke-width="0"/>
		<rect x="194" y="229" width="184" height="50" fill="none" rx="14" stroke="#7fbc41" stroke-width="2"/>
		<line x1="194" y1="254" x2="378" y2="254" stroke="#7fbc41" stroke-width="1"/>
		<text x="210" y="246.75" fill="#000000" font-family="Verdana" font-size="12">S_ABONNER</text>
		<text x="201" y="271.8" fill="#000000" font-family="Verdana" font-size="12">subscribed_at</text>
	</g>
	<text x="238" y="296" fill="#c51b7d" font-family="Verdana" font-size="12">0,N</text>
	<text x="375" y="160.16" fill="#c51b7d" font-family="Verdana" font-size="12">0,N</text>
</g>

<!-- Association CREER -->
<g>
	<line x1="286" y1="406" x2="515" y2="254" stroke="#7fbc41" stroke-width="2"/>
	<line x1="515" y1="102" x2="515" y2="254" stroke="#7fbc41" stroke-width="2"/>
	<g>
		<path d="M549 229 a14 14 90 0 1 14 14 V254 h-96 V243 a14 14 90 0 1 14 -14" fill="#b8e186" stroke="#b8e186" stroke-width="0"/>
		<path d="M563 254 v11 a14 14 90 0 1 -14 14 H481 a14 14 90 0 1 -14 -14 V254 H96" fill="#e6f5d0" stroke="#e6f5d0" stroke-width="0"/>
		<rect x="467" y="229" width="96" height="50" fill="none" rx="14" stroke="#7fbc41" stroke-width="2"/>
		<line x1="467" y1="254" x2="563" y2="254" stroke="#7fbc41" stroke-width="1"/>
		<text x="474" y="246.75" fill="#000000" font-family="Verdana" font-size="12">CREER</text>
	</g>
	<text x="366" y="368.13" fill="#c51b7d" font-family="Verdana" font-size="12">0,N</text>
	<text x="520" y="212" fill="#c51b7d" font-family="Verdana" font-size="12">1,1</text>
</g>

<!-- Association SOUMETTRE -->
<g>
	<line x1="286" y1="406" x2="712" y2="254" stroke="#7fbc41" stroke-width="2"/>
	<line x1="927" y1="102" x2="712" y2="254" stroke="#7fbc41" stroke-width="2"/>
	<g>
		<path d="M781 229 a14 14 90 0 1 14 14 V254 h-166 V243 a14 14 90 0 1 14 -14" fill="#b8e186" stroke="#b8e186" stroke-width="0"/>
		<path d="M795 254 v11 a14 14 90 0 1 -14 14 H643 a14 14 90 0 1 -14 -14 V254 H166" fill="#e6f5d0" stroke="#e6f5d0" stroke-width="0"/>
		<rect x="629" y="229" width="166" height="50" fill="none" rx="14" stroke="#7fbc41" stroke-width="2"/>
		<line x1="629" y1="254" x2="795" y2="254" stroke="#7fbc41" stroke-width="1"/>
		<text x="637" y="246.75" fill="#000000" font-family="Verdana" font-size="12">SOUMETTRE</text>
	</g>
	<text x="366" y="393.45" fill="#c51b7d" font-family="Verdana" font-size="12">1,N</text>
	<text x="772" y="177.15" fill="#c51b7d" font-family="Verdana" font-size="12">1,1</text>
</g>

<!-- Association VOTER -->
<g>
	<line x1="286" y1="406" x2="927" y2="254" stroke="#7fbc41" stroke-width="2"/>
	<line x1="927" y1="102" x2="927" y2="254" stroke="#7fbc41" stroke-width="2"/>
	<g>
		<path d="M974 220 a14 14 90 0 1 14 14 V245 h-122 V234 a14 14 90 0 1 14 -14" fill="#b8e186" stroke="#b8e186" stroke-width="0"/>
		<path d="M988 245 v29 a14 14 90 0 1 -14 14 H880 a14 14 90 0 1 -14 -14 V245 H122" fill="#e6f5d0" stroke="#e6f5d0" stroke-width="0"/>
		<rect x="866" y="220" width="122" height="68" fill="none" rx="14" stroke="#7fbc41" stroke-width="2"/>
		<line x1="866" y1="245" x2="988" y2="245" stroke="#7fbc41" stroke-width="1"/>
		<text x="886" y="237.75" fill="#000000" font-family="Verdana" font-size="12">VOTER</text>
		<text x="873" y="262.8" fill="#000000" font-family="Verdana" font-size="12">value</text>
		<text x="873" y="279.8" fill="#000000" font-family="Verdana" font-size="12">voted_at</text>
	</g>
	<text x="366" y="403.39" fill="#c51b7d" font-family="Verdana" font-size="12">0,N</text>
	<text x="932" y="212" fill="#c51b7d" font-family="Verdana" font-size="12">0,N</text>
</g>

<!-- Association OBTENIR -->
<g>
	<line x1="286" y1="406" x2="712" y2="406" stroke="#7fbc41" stroke-width="2"/>
	<line x1="712" y1="533" x2="712" y2="406" stroke="#7fbc41" stroke-width="2"/>
	<line x1="515" y1="102" x2="712" y2="406" stroke="#7fbc41" stroke-width="2"/>
	<g>
		<path d="M777 381 a14 14 90 0 1 14 14 V406 h-158 V395 a14 14 90 0 1 14 -14" fill="#b8e186" stroke="#b8e186" stroke-width="0"/>
		<path d="M791 406 v11 a14 14 90 0 1 -14 14 H647 a14 14 90 0 1 -14 -14 V406 H158" fill="#e6f5d0" stroke="#e6f5d0" stroke-width="0"/>
		<rect x="633" y="381" width="158" height="50" fill="none" rx="14" stroke="#7fbc41" stroke-width="2"/>
		<line x1="633" y1="406" x2="791" y2="406" stroke="#7fbc41" stroke-width="1"/>
		<text x="657" y="398.75" fill="#000000" font-family="Verdana" font-size="12">OBTENIR</text>
		<text x="640" y="423.8" fill="#000000" font-family="Verdana" font-size="12">awarded_at</text>
	</g>
	<text x="366" y="423" fill="#c51b7d" font-family="Verdana" font-size="12">0,N</text>
	<text x="717" y="466" fill="#c51b7d" font-family="Verdana" font-size="12">0,N</text>
	<text x="535.25" y="212" fill="#c51b7d" font-family="Verdana" font-size="12">0,1</text>
</g>

<!-- Entity GAMES -->
<g>
	<g>
		<rect x="9" y="43" width="140" height="25" fill="#f1b6da" stroke="none" stroke-width="0" opacity="1"/>
		<rect x="9" y="68" width="140" height="93" fill="#fde0ef" stroke="none" stroke-width="0" opacity="1"/>
		<rect x="9" y="43" width="140" height="118" fill="none" stroke="#de77ae" stroke-width="2" opacity="1"/>
		<line x1="9" y1="68" x2="149" y2="68" stroke="#de77ae" stroke-width="1"/>
	</g>
	<text x="35" y="60.75" fill="#000000" font-family="Verdana" font-size="12">GAMES</text>
	<text x="14" y="85.8" fill="#000000" font-family="Verdana" font-size="12">id_game</text>
	<line x1="14" y1="88" x2="119" y2="88" stroke="#000000" stroke-width="1"/>
	<text x="14" y="102.8" fill="#000000" font-family="Verdana" font-size="12">name</text>
	<text x="14" y="119.8" fill="#000000" font-family="Verdana" font-size="12">slug</text>
	<text x="14" y="136.8" fill="#000000" font-family="Verdana" font-size="12">cover_url</text>
	<text x="14" y="153.8" fill="#000000" font-family="Verdana" font-size="12">created_at</text>
</g>

<!-- Entity CHALLENGES -->
<g>
	<g>
		<rect x="423" y="9" width="184" height="25" fill="#f1b6da" stroke="none" stroke-width="0" opacity="1"/>
		<rect x="423" y="34" width="184" height="161" fill="#fde0ef" stroke="none" stroke-width="0" opacity="1"/>
		<rect x="423" y="9" width="184" height="186" fill="none" stroke="#de77ae" stroke-width="2" opacity="1"/>
		<line x1="423" y1="34" x2="607" y2="34" stroke="#de77ae" stroke-width="1"/>
	</g>
	<text x="434" y="26.75" fill="#000000" font-family="Verdana" font-size="12">CHALLENGES</text>
	<text x="428" y="51.8" fill="#000000" font-family="Verdana" font-size="12">id_challenge</text>
	<line x1="428" y1="54" x2="580" y2="54" stroke="#000000" stroke-width="1"/>
	<text x="428" y="68.8" fill="#000000" font-family="Verdana" font-size="12">slug</text>
	<text x="428" y="85.8" fill="#000000" font-family="Verdana" font-size="12">title</text>
	<text x="428" y="102.8" fill="#000000" font-family="Verdana" font-size="12">description</text>
	<text x="428" y="119.8" fill="#000000" font-family="Verdana" font-size="12">rules</text>
	<text x="428" y="136.8" fill="#000000" font-family="Verdana" font-size="12">reward_points</text>
	<text x="428" y="153.8" fill="#000000" font-family="Verdana" font-size="12">status</text>
	<text x="428" y="170.8" fill="#000000" font-family="Verdana" font-size="12">created_at</text>
	<text x="428" y="187.8" fill="#000000" font-family="Verdana" font-size="12">updated_at</text>
</g>

<!-- Entity PARTICIPATIONS -->
<g>
	<g>
		<rect x="817" y="9" width="220" height="25" fill="#f1b6da" stroke="none" stroke-width="0" opacity="1"/>
		<rect x="817" y="34" width="220" height="161" fill="#fde0ef" stroke="none" stroke-width="0" opacity="1"/>
		<rect x="817" y="9" width="220" height="186" fill="none" stroke="#de77ae" stroke-width="2" opacity="1"/>
		<line x1="817" y1="34" x2="1037" y2="34" stroke="#de77ae" stroke-width="1"/>
	</g>
	<text x="823" y="26.75" fill="#000000" font-family="Verdana" font-size="12">PARTICIPATIONS</text>
	<text x="822" y="51.8" fill="#000000" font-family="Verdana" font-size="12">id_participation</text>
	<line x1="822" y1="54" x2="1010" y2="54" stroke="#000000" stroke-width="1"/>
	<text x="822" y="68.8" fill="#000000" font-family="Verdana" font-size="12">video_url</text>
	<text x="822" y="85.8" fill="#000000" font-family="Verdana" font-size="12">screenshot_url</text>
	<text x="822" y="102.8" fill="#000000" font-family="Verdana" font-size="12">description</text>
	<text x="822" y="119.8" fill="#000000" font-family="Verdana" font-size="12">upvotes</text>
	<text x="822" y="136.8" fill="#000000" font-family="Verdana" font-size="12">downvotes</text>
	<text x="822" y="153.8" fill="#000000" font-family="Verdana" font-size="12">status</text>
	<text x="822" y="170.8" fill="#000000" font-family="Verdana" font-size="12">created_at</text>
	<text x="822" y="187.8" fill="#000000" font-family="Verdana" font-size="12">updated_at</text>
</g>

<!-- Entity PROFILES -->
<g>
	<g>
		<rect x="211" y="304" width="150" height="25" fill="#f1b6da" stroke="none" stroke-width="0" opacity="1"/>
		<rect x="211" y="329" width="150" height="179" fill="#fde0ef" stroke="none" stroke-width="0" opacity="1"/>
		<rect x="211" y="304" width="150" height="204" fill="none" stroke="#de77ae" stroke-width="2" opacity="1"/>
		<line x1="211" y1="329" x2="361" y2="329" stroke="#de77ae" stroke-width="1"/>
	</g>
	<text x="226" y="321.75" fill="#000000" font-family="Verdana" font-size="12">PROFILES</text>
	<text x="216" y="346.8" fill="#000000" font-family="Verdana" font-size="12">id_profile</text>
	<line x1="216" y1="349" x2="329" y2="349" stroke="#000000" stroke-width="1"/>
	<text x="216" y="363.8" fill="#000000" font-family="Verdana" font-size="12">username</text>
	<text x="216" y="380.8" fill="#000000" font-family="Verdana" font-size="12">avatar_url</text>
	<text x="216" y="397.8" fill="#000000" font-family="Verdana" font-size="12">bio</text>
	<text x="216" y="414.8" fill="#000000" font-family="Verdana" font-size="12">role</text>
	<text x="216" y="431.8" fill="#000000" font-family="Verdana" font-size="12">points</text>
	<text x="216" y="448.8" fill="#000000" font-family="Verdana" font-size="12">karma</text>
	<text x="216" y="465.8" fill="#000000" font-family="Verdana" font-size="12">is_banned</text>
	<text x="216" y="482.8" fill="#000000" font-family="Verdana" font-size="12">created_at</text>
	<text x="216" y="499.8" fill="#000000" font-family="Verdana" font-size="12">updated_at</text>
</g>

<!-- Entity BADGES -->
<g>
	<g>
		<rect x="640" y="474" width="144" height="25" fill="#f1b6da" stroke="none" stroke-width="0" opacity="1"/>
		<rect x="640" y="499" width="144" height="93" fill="#fde0ef" stroke="none" stroke-width="0" opacity="1"/>
		<rect x="640" y="474" width="144" height="118" fill="none" stroke="#de77ae" stroke-width="2" opacity="1"/>
		<line x1="640" y1="499" x2="784" y2="499" stroke="#de77ae" stroke-width="1"/>
	</g>
	<text x="661" y="491.75" fill="#000000" font-family="Verdana" font-size="12">BADGES</text>
	<text x="645" y="516.8" fill="#000000" font-family="Verdana" font-size="12">id_badge</text>
	<line x1="645" y1="519" x2="757" y2="519" stroke="#000000" stroke-width="1"/>
	<text x="645" y="533.8" fill="#000000" font-family="Verdana" font-size="12">name</text>
	<text x="645" y="550.8" fill="#000000" font-family="Verdana" font-size="12">description</text>
	<text x="645" y="567.8" fill="#000000" font-family="Verdana" font-size="12">icon_url</text>
	<text x="645" y="584.8" fill="#000000" font-family="Verdana" font-size="12">created_at</text>
</g>
</svg>